<?xml version="1.0"?>
<!-- Converted with SVG Converter - Version 0.9.5 (Compiled Mon May 30 09:08:51 2011) - Copyright (C) 2011 Nokia -->
<svg xmlns="http://www.w3.org/2000/svg" width="96" version="1.1" height="96" viewBox="0 0 96 96" baseProfile="tiny" xmlns:xlink="http://www.w3.org/1999/xlink" id="svg50" xml:space="preserve">
 <metadata id="metadata54"/>
 <defs id="defs24">
  <linearGradient id="a" y1="8.2559" x1="48" y2="87.504" x2="48" gradientUnits="userSpaceOnUse">
   <stop offset=".0364" stop-color="#fff" id="stop2"/>
   <stop offset=".1064" stop-color="#fafafa" id="stop4"/>
   <stop offset=".2248" stop-color="#ceeaff" id="stop6"/>
   <stop offset=".3771" stop-color="#95d2ff" id="stop8"/>
   <stop offset=".5394" stop-color="#67c0ff" id="stop10"/>
   <stop offset="1" stop-color="#0066ad" id="stop12"/>
  </linearGradient>
  <linearGradient gradientTransform="matrix(2.1818 0 0 2.1818 -313.67 -1794.8)" id="b" y1="826.52" x1="165.77" y2="863.51" x2="165.77" gradientUnits="userSpaceOnUse">
   <stop offset="0" stop-color="#98d5ff" id="stop15"/>
   <stop offset=".2312" stop-color="#66bfff" id="stop17"/>
   <stop offset=".747" stop-color="#3af" id="stop19"/>
   <stop offset="1" stop-color="#0088e8" id="stop21"/>
  </linearGradient>
 </defs>
 <g id="g34">
  <rect width="96" height="96" fill-opacity="0" id="rect26"/>
  <path stroke-opacity=".4" fill-opacity=".4" id="path28" d="m88.023 49c0 29.633-10.364 40-40 40-29.635 0-40-10.367-40-40 0-29.634 10.366-40 40-40 29.636 0 40 10.365 40 40z"/>
  <path fill="url(#b)" id="path30" d="M 88,48.001 C 88,77.632 77.636,88 48.001,88 18.366,88 8,77.632 8,48.001 8,18.365 18.366,7.999 48.001,7.999 77.636,7.999 88,18.365 88,48.001 Z"/>
  <path stroke-opacity=".25" fill="url(#a)" fill-opacity=".25" id="path32" d="m48 8c-29.635 0-40 10.365-40 40 0 29.633 10.365 40 40 40 29.637 0 40-10.367 40-40 0-29.635-10.363-40-40-40zm0 79.023c-29.158 0-39-9.847-39-39.023s9.842-39.023 39-39.023 39 9.847 39 39.023-9.842 39.023-39 39.023z"/>
 </g>
 <path fill="none" stroke="#1a1a1a" stroke-linecap="round" id="path36" stroke-width="3.3578" d="M 48,31.729115 V 24.453851"/>
 <circle fill="#1a1a1a" cx="41.843884" cy="46.839661" style="stroke-width:0.886665;paint-order:fill markers stroke" r="2.2384746" id="circle38"/>
 <circle fill="#1a1a1a" cx="54.156116" cy="46.839661" style="stroke-width:0.886665;paint-order:fill markers stroke" r="2.2384746" id="circle40"/>
 <path fill="none" stroke="#1a1a1a" stroke-linecap="round" id="path42" stroke-width="3.3578" d="m 52.476772,55.233719 c -2.238563,2.798137 -6.715601,2.798137 -8.954431,0"/>
 <path fill="none" stroke="#1a1a1a" style="paint-order:normal" id="path44" stroke-width="3.3578" d="M 65.907974,50.756947 C 65.90798,60.647695 57.890128,67.545949 48,67.545949 c -9.890749,0 -17.907974,-6.89852 -17.907974,-16.789002 C 30.092045,40.866198 44.642199,32.848973 48,31.729115 c 3.357801,1.119237 17.829061,9.128216 17.907974,19.027832 z"/>
 <path fill="none" stroke="#1a1a1a" stroke-linecap="round" id="path46" stroke-width="3.3578" d="m 30.092026,67.545949 l 4.477038,-4.477037"/>
 <path fill="none" stroke="#1a1a1a" stroke-linecap="round" id="path48" stroke-width="3.3578" d="M 65.907974,67.545949 L 61.430936,63.068912"/>
</svg>
